<svg viewBox="0 0 200 200" fill="none" xmlns="http://www.w3.org/2000/svg">
  <path
    d="M93.4575 57.5672C92.8267 57.3877 91.5597 56.8439 86.4113 54.541C83.8592 53.3994 81.3256 53.0374 78.5699 52.7655C75.3798 52.4507 72.8914 52.8525 71.6692 53.2141C70.084 53.6831 68.5465 57.9913 67.584 60.5526C67.3064 61.2911 67.0837 61.9148 67.2183 62.4572C67.6273 64.1057 70.1561 64.9953 71.4299 65.6764C71.9485 65.9537 72.6086 66.1753 72.7038 66.537C73.4306 69.2989 67.3665 67.2629 64.9629 67.8516C62.8339 68.373 61.0204 68.8943 59.4761 69.5727C57.9055 70.2626 56.6701 72.4181 55.5771 74.7754C54.4486 77.2092 54.5765 80.1236 54.6214 81.8895C54.646 82.857 55.0279 83.3945 55.7035 84.0715C57.8811 86.2534 61.7111 86.6545 64.7277 86.9318C70.6809 87.4791 56.942 87.5626 53.8628 89.6875C52.2454 90.8036 51.5911 92.3643 50.7727 93.5878C48.8663 96.4379 50.5851 101.337 51.0854 102.426C51.642 103.637 54.5548 105.138 57.5579 106.189C60.4337 107.195 63.0923 107.324 63.7707 107.369C64.3732 107.409 59.4326 107.686 51.099 107.956C45.4001 108.141 41.9117 111.478 39.5829 113.435C38.4984 114.346 38.1731 115.747 38.0372 117.056C37.8555 118.805 38.3498 120.549 39.2974 122.04C40.4286 123.821 43.0509 125.44 46.2593 127.339C51.6539 130.533 53.0322 130.253 53.3516 130.434C54.5572 131.116 49.8782 133.225 47.9668 136.494C45.66 140.44 45.9683 142.393 45.6502 143.708C45.5743 144.021 45.604 144.296 45.7386 144.569C46.6561 146.432 49.9434 147.831 52.4802 148.649C54.566 149.322 58.2689 149.196 62.1624 149.151C65.7417 149.11 62.316 150.236 63.7707 148.831C65.2909 147.364 70.653 140.469 70.1208 138.324C70.0297 137.957 70.0745 137.782 70.0297 137.957C69.2013 141.195 69.9821 146.732 70.7502 149.277C71.1996 150.766 72.5162 151.55 73.601 151.867C77.8559 153.109 82.2109 148.595 82.6063 149.277C84.1063 151.867 86.2931 150.109 87.6906 147.227C90.4079 141.623 91.5542 137.238 91.5542 137.768C91.5542 141.528 94.9584 145.76 95.3648 146.437C96.6769 148.623 95.7142 149.19 97.7072 150.64C99.5632 151.989 102.237 152.187 104.229 152.007C106.64 151.79 109.045 149.875 110.494 146.437C112.079 142.678 110.315 138.233 110.494 138.093C113.078 136.077 114.18 144.171 117.708 146.437C121.315 148.755 124.35 148.195 128.378 148.831C130.922 149.233 132.697 148.834 133.376 148.608C134.009 148.398 134.511 147.929 134.964 147.522C135.766 146.802 134.878 145.036 134.741 143.085C134.647 141.751 134.155 138.885 133.925 135.612C133.734 132.885 133.608 131.525 133.562 131.431C132.355 128.981 138.385 137.939 142.297 140.263C143.697 141.094 145.112 140.946 146.472 140.813C147.193 140.743 148.103 140.498 149.008 139.955C149.669 139.56 150.188 138.597 151.317 136.884C155.231 130.943 155.629 126.275 155.857 124.731C156.08 123.226 153.916 121.925 152.194 120.606C149.956 118.893 144.155 117.754 141.856 117.158C140.888 116.908 147.168 118.194 153.526 118.427C156.482 118.535 158.071 116.846 159.252 115.802C160.383 114.802 160.974 111.424 161.114 107.157C161.156 105.876 160.708 104.972 160.257 104.158C159.028 101.942 155.455 101.255 154.097 100.665C150.307 99.0187 144.057 98.3514 142.218 98.036C140.482 97.7384 149.963 94.4796 153.315 92.1032C155.244 90.7362 155.629 87.9351 155.811 86.8489C156.15 84.8291 151.197 84.3977 145.327 83.0845C138.937 81.6551 137.146 83.4869 136.916 83.2191C134.754 80.6993 142.377 76.2681 143.982 73.8849C144.921 72.4912 145.748 69.4544 145.754 67.3173C145.761 64.293 139.527 61.5694 135.839 60.3337C134.325 59.8262 130.734 60.0142 126.387 60.0591C122.116 60.1031 118.659 62.638 117.708 63.1831C117.415 63.351 117.384 63.0105 117.609 62.4681C118.765 59.6724 120.729 57.491 121.463 55.9847C121.727 55.4415 116.25 55.392 109.454 55.4369C106.231 55.4581 105.154 55.8433 104.065 56.296C102.576 56.9152 100.451 59.0952 98.2755 60.7293C97.6115 61.2281 97.5359 60.5689 97.6257 60.157C98.0302 58.2996 100.614 57.0288 101.024 55.581C101.817 52.7857 100.44 51.5909 99.9395 50.502C99.413 49.356 98.0852 48.6001 96.3192 47.556C95.9138 47.3163 95.6381 47.1481 95.3648 47.0557C95.0916 46.9633 94.8224 46.9633 94.5043 47.2324C92.5671 48.8716 92.6418 53.1951 92.9124 55.1609C93.2753 56.4769 93.5472 57.2925 93.728 57.835C93.8191 58.1082 93.9089 58.3774 94.0013 58.6547"
    stroke="currentColor" stroke-width="2" stroke-linecap="round" />
</svg>
