<svg viewBox="0 0 200 200" fill="none" xmlns="http://www.w3.org/2000/svg">
<path d="M97.5 35C65.5 41.5 61.497 55.6016 55 93.5001C52 111 47.033 129.282 59.5 148.5C61.4753 151.172 54.4925 170.597 48.5 178C59.3852 176.587 92 172 97.5 152.5M97.5 35C81.5 43 67.5 68.5 66.5 112C66.5 130.5 64.033 135.782 76.5 155M97.5 35C88.8717 44.082 85.223 49.6509 81 60.5M97.5 35C91.4079 44.8378 88.8719 50.4118 86.5 60.5M97.5 35C94.0282 44.8674 92.7033 50.4358 91.5 60.5M97.5 35C96.3343 44.9702 95.804 50.5563 95.5 60.5M97.5 35V60.5" stroke="currentColor" stroke-width="3"/>
<path d="M98 35C130 41.5 134.003 55.6016 140.5 93.5001C143.5 111 148.467 129.282 136 148.5C134.025 151.172 141.008 170.597 147 178C136.115 176.587 103.5 172 98 152.5M98 35C114 43 128 68.5 129 112C129 130.5 131.467 135.782 119 155M98 35C106.628 44.082 110.277 49.6509 114.5 60.5M98 35C104.092 44.8378 106.628 50.4118 109 60.5M98 35C101.472 44.8674 102.797 50.4358 104 60.5M98 35C99.1657 44.9702 99.696 50.5563 100 60.5M98 35V60.5" stroke="currentColor" stroke-width="3"/>
<path d="M68.5 87.5C82 114 114.5 114.5 127 87.5" stroke="currentColor" stroke-width="3"/>
</svg>
