<svg viewBox="0 0 200 200" fill="none" xmlns="http://www.w3.org/2000/svg">
<path d="M89.7387 45.099C27.8954 93.6608 31.757 124.278 31.7387 150.099M89.7387 45.099C129.152 35.5118 191.146 90.0075 179.239 155.599M89.7387 45.099C140.511 88.704 169.118 117.596 143.239 155.599M89.7387 45.099C151.465 75.3524 166.366 103.28 155.739 155.599M89.7387 45.099C157.152 64.9544 168.804 96.0191 173.239 155.599M89.7387 45.099C71.1979 50.5626 39.6727 82.3478 39.2387 84.099C38.8048 85.8502 17.5269 128.418 20.2387 155.599M89.7387 45.099C73.1181 61.0719 64.3118 72.1999 50.7387 101.099C39.5744 122.002 38.2522 134.002 39.2387 155.599" stroke="currentColor"/>
</svg>
