<svg viewBox="0 0 200 200" fill="none" xmlns="http://www.w3.org/2000/svg">
  <path
    d="M51.3045 61.4196C52.2969 61.4196 55.0023 61.0607 56.6935 60.7847C56.9352 60.7453 57.1013 61.1423 57.0592 61.5501C56.9568 62.5409 54.4069 66.1914 51.0109 71.4879C49.6429 73.6215 49.1402 74.7207 48.9975 75.3202C48.8548 75.9198 49.1239 76.0095 49.4869 76.0108C50.3033 76.0139 53.5422 74.8431 57.7566 73.4822C59.1658 73.0272 59.1895 73.3775 58.6063 74.3237C56.9787 76.9642 55.3857 79.1771 55.4713 80.1736C55.5927 81.5862 60.5218 80.1858 65.004 79.2355C67.6313 78.6785 69.062 78.1874 69.9239 78.5449C70.3901 78.7383 69.9783 79.9791 68.0913 83.8523C66.2044 87.7254 62.6154 94.4548 60.6768 98.1907C58.7381 101.927 58.5587 102.465 58.6008 102.832C58.643 103.199 58.9122 103.378 59.4097 103.336C62.7165 103.056 65.1685 101.027 65.6212 101.025C65.8249 101.025 65.8944 101.383 65.806 101.746C65.5963 102.607 64.7225 104.186 64.0428 106.178C63.766 106.989 63.8117 107.451 64.3949 107.683C64.9781 107.914 66.1446 107.914 66.7903 108.273C67.93 108.906 67.3491 112.601 66.9412 117.081C66.4744 122.208 68.51 126.011 69.565 128.302C70.0831 129.427 70.8755 130.475 72.008 132.059C74.0245 134.88 75.1388 136 75.8621 138.219C77.1318 142.346 78.0372 144.342 78.267 145.431C78.3119 145.704 78.4016 145.973 78.494 146.251"
    stroke="currentColor" stroke-width="2" stroke-linecap="round" />
  <path
    d="M83.3881 50C82.5751 50.0897 81.7594 50.3616 81.3067 50.677C81.0681 50.8433 81.0335 51.2616 81.3462 51.6708C82.1602 52.7362 86.9744 53.0806 93.9417 52.9922C99.3301 52.9239 102.502 51.6341 102.92 51.2262C104.613 49.5711 97.1786 51.4465 94.2856 52.394C91.233 53.3939 88.1191 56.0578 85.2655 58.4573C83.7816 59.7051 83.4805 60.6012 83.5227 61.2333C83.732 64.3739 90.7945 65.0358 96.057 65.9045C100.461 66.6314 102.597 64.9569 103.367 64.4145C103.711 64.1717 103.867 63.8721 103.376 63.9129C101.678 64.054 99.2613 65.4001 96.73 67.0261C94.0235 68.7645 91.0202 72.1839 87.9858 75.5799C86.3845 77.3721 85.8379 78.5435 85.6992 79.4489C85.1409 83.0941 94.7125 79.4571 95.5268 79.0506C95.912 78.8584 96.1617 78.5544 96.1209 78.4157C95.7249 77.0692 92.3715 80.1695 90.0577 83.0692C88.1448 85.4665 88.1028 88.6852 88.4154 91.5442C88.7269 94.3917 91.806 95.8524 93.7582 96.403C94.7614 96.6859 95.7104 95.953 96.4336 95.2759C96.8329 94.9022 97.1569 94.3298 97.0277 94.187C96.5126 93.6177 93.8289 96.2956 90.4818 99.8655C87.2283 103.336 86.1995 106.367 85.8827 107.587C85.593 108.704 85.653 109.811 85.9684 110.851C86.6608 113.135 89.4513 114.162 91.2214 114.665C91.6188 114.778 91.9908 114.711 91.9514 114.98C91.6062 117.337 89.5547 119.502 89.5044 123.353C89.4929 124.233 91.8902 124.227 94.0246 124.227C94.4542 124.227 93.557 124.227 92.9602 124.407C90.2266 125.229 89.4622 130.019 89.1441 131.427C88.753 133.159 88.6465 134.641 88.5092 136.411C88.392 137.922 88.1028 139.176 87.9654 141.619C87.8309 142.439 87.7384 143.524 87.7833 144.882C87.8281 145.432 87.9179 145.702 88.0103 145.979"
    stroke="currentColor" stroke-width="2" stroke-linecap="round" />
  <path
    d="M121.182 55.166C123.164 55.166 127.147 55.5249 130.503 56.656C132.512 57.3328 133.686 58.426 133.825 59.0582C133.907 59.435 133.156 59.8698 130.007 61.8057C126.859 63.7416 121.116 67.1511 118.293 68.9973C115.469 70.8435 115.738 71.0229 116.595 71.2051C118.864 71.6879 121.353 71.7516 121.951 72.604C122.489 73.3709 119.768 75.1612 117.856 77.2507C113.837 81.6442 111.847 84.528 111.846 84.9807C111.843 86.1242 114.379 85.0772 115.105 84.8488C117.115 84.2165 111.578 89.0577 111.169 89.872C110.867 90.4721 114.895 90.6048 119.61 90.6918C121.118 90.7196 120.736 91.6761 119.205 93.616C115.113 98.802 111.85 102.47 111.8 103.376C111.595 107.07 118.55 103.563 119.004 103.832C119.702 104.247 117.927 106.451 115.133 110.193C113.23 112.744 110.007 116.359 108.209 118.523C106.412 120.687 106.053 121.226 106.048 121.593C106.038 122.243 107.13 122.324 107.629 122.593C110.377 124.076 104.24 129.747 103.423 131.151C103.151 131.619 103.503 131.748 103.776 131.704C104.049 131.661 104.319 131.481 104.368 131.703C105.207 135.505 98.0813 140.704 96.8959 142.485C96.624 142.803 96.2651 143.162 96.0353 143.482C95.8056 143.801 95.7159 144.07 95.6234 144.348"
    stroke="currentColor" stroke-width="2" stroke-linecap="round" />
  <path
    d="M153.265 67.9451C152.727 67.9451 150.206 68.0348 146.359 68.3053C144.749 68.4186 143.858 68.7553 147.164 68.894C150.47 69.0326 158.007 69.0326 162.249 68.9429C166.49 68.8532 167.208 68.6737 167.802 68.5813C168.396 68.4889 168.845 68.4889 165.038 72.2125C161.232 75.9361 153.156 83.3833 148.817 87.444C144.478 91.5048 144.119 91.9534 144.068 92.1845C144.001 92.4955 145.551 92.2362 147.226 91.9194C147.916 91.7891 148.273 91.6924 144.555 97.7026C140.837 103.713 133.031 115.826 128.74 122.604C124.45 129.382 123.911 130.459 123.769 131.148C122.884 135.421 136.22 124.233 135.377 124.763C130.041 128.12 126.261 131.476 125.941 131.838C125.539 132.293 127.699 132.384 129.057 132.339C129.609 132.321 129.877 132.205 127.234 134.536C124.591 136.868 119.028 141.623 115.983 144.118C112.579 146.702 111.94 146.795 111.128 146.929C110.586 147.064 109.778 147.333 108.674 148.154"
    stroke="currentColor" stroke-width="2" stroke-linecap="round" />
  <path
    d="M32 104.923C32.1795 104.02 33.441 102.394 36.1138 100.263C37.8135 98.9068 39.9692 98.9411 41.19 99.2103C42.5472 99.5095 43.0552 100.842 43.3271 101.429C43.9931 102.867 42.2504 106.081 37.321 112.919C36.325 114.301 35.9044 114.613 35.8541 114.753C35.2198 116.519 43.7459 111.552 46.4064 110.904C46.6719 110.84 46.9488 110.904 47.222 111.129C48.7286 112.366 48.5856 115.151 48.1805 118.233C47.6756 122.074 45.1434 124.225 45.051 124.632C44.9477 125.088 49.9043 123.246 56.2014 120.89C58.456 120.046 58.8197 119.969 59.0943 120.282C59.8374 121.128 59.5538 122.86 58.5641 125.878C57.8305 128.115 56.3183 131.677 55.803 133.616C55.2878 135.554 55.7364 135.734 56.5956 135.826C57.4548 135.919 58.711 135.919 59.3581 136.143C60.819 136.65 60.5435 138.632 61.4068 140.443C62.1551 142.013 63.2625 142.803 64.3066 144.477C65.0919 145.735 65.5301 147.061 66.0304 148.15C66.3458 148.692 66.8896 149.329 67.5231 150.007C67.7977 150.327 67.9771 150.596 68.162 150.873"
    stroke="currentColor" stroke-width="2" stroke-linecap="round" />
</svg>
