<svg viewBox="0 0 200 200" fill="none" xmlns="http://www.w3.org/2000/svg">
  <path
    d="M123.159 54.887C122.8 54.7075 121.449 54.0767 117.663 52.7676C115.082 51.8752 111.006 51.0098 106.817 50.4116C102.629 49.8134 98.4114 49.634 95.9698 49.6313C93.5282 49.6285 92.9899 49.808 92.5779 50.1247C91.7658 50.7493 91.4401 52.1599 91.1682 55.5817C90.961 58.1894 91.0757 62.5925 91.1654 65.2163C91.28 68.5667 92.1579 70.0152 93.4222 71.372C96.2219 74.3764 102.909 74.9093 105.575 75.0997C106.112 75.138 103.153 70.782 98.3176 64.2701C95.9412 61.0699 93.2128 58.476 91.1097 56.551C89.0066 54.626 87.4813 53.5493 85.215 52.546C82.9488 51.5427 79.9878 50.6454 77.5204 50.1383C73.2179 49.2541 70.689 49.5388 69.649 49.8991C68.523 50.2892 68.0571 53.1441 67.9198 57.7065C67.758 63.083 68.9571 67.56 69.9957 70.4992C70.9863 73.3024 73.5684 75.9888 76.2384 78.3896C77.8301 79.8208 79.5582 79.7192 81.4085 79.4065C84.3257 78.9135 86.2659 76.3748 87.4418 74.7027C88.6062 73.047 89.08 70.0424 89.2173 66.4683C89.3242 63.6864 87.7314 61.2439 85.8336 58.8023C83.9488 56.3774 81.4805 54.8924 78.9506 53.8973C76.1571 52.7985 73.1442 52.6221 70.4321 52.6207C67.6965 52.6194 65.2566 53.8837 63.2663 55.3288C61.2981 56.7579 60.357 59.4059 59.317 63.0139C57.6997 68.6248 58.084 73.6341 58.5353 76.3912C59.0064 79.2686 60.0743 82.1526 61.2488 85.0007C62.4204 87.8414 64.3294 90.2225 66.408 92.2127C68.4202 94.1393 70.8549 94.7631 72.9784 95.035C75.3535 95.3391 76.9345 94.948 77.432 94.3621C79.0568 92.4487 76.3118 88.2594 73.5956 84.3115C72.1637 82.2302 69.6993 81.0841 67.0783 80.3595C64.3561 79.6069 61.363 80.2602 58.6047 81.2078C55.9055 82.135 53.9267 84.3332 52.1172 86.1413C50.4775 87.7798 49.7504 89.6814 49.3874 91.3087C49.0331 92.8969 50.0141 94.6652 51.3233 96.4285C52.7701 98.3771 56.6103 100.1 61.0898 101.957C64.254 103.269 67.0456 103.012 69.4424 102.923C71.5854 102.842 73.3047 102.02 74.6166 101.071C75.809 100.209 76.3907 98.8497 76.7985 97.5391C77.2166 96.1956 76.8475 94.6815 76.4872 93.2799C76.1148 91.8309 74.6777 90.8723 73.2775 90.1028C71.7501 89.2635 69.6069 89.5971 67.3923 90.3176C64.8092 91.158 62.8095 94.3852 60.6847 98C58.4222 101.849 57.184 106.343 56.4145 110.729C55.6979 114.813 55.9985 118.404 56.6756 121.299C57.2919 123.934 59.2531 126.113 61.6472 128.103C64.1675 130.198 68.484 130.833 73.5453 131.421C76.1763 131.727 78.9655 131.741 82.0135 131.428C88.3423 130.779 92.3373 129.389 93.6492 128.802C94.2643 128.526 94.6919 128.125 94.8782 127.671C95.0644 127.216 94.9747 126.678 94.5696 126.042C93.6247 124.558 91.5407 123.141 89.1453 121.648C84.5727 118.799 80.2162 118.603 77.3545 118.69C76.1816 118.726 75.4907 120.226 74.8572 121.581C74.1794 123.031 74.2182 124.935 74.3977 127.014C74.5973 129.327 76.1133 131.461 77.8752 133.27C79.6164 135.058 82.2718 135.817 84.8928 136.541C87.615 137.294 90.8772 136.551 94.2229 135.422C95.9059 134.855 97.3891 133.845 99.3862 132.082C101.383 130.319 103.806 127.717 105.368 125.748C107.791 122.695 108.564 119.704 109.063 116.541C109.584 113.238 108.393 110.095 106.903 107.518C105.394 104.908 102.599 103.292 99.4841 101.934C95.4886 100.192 91.8098 101.286 90.0915 102.369C88.3073 103.494 87.4541 105.541 86.9103 107.304C86.6493 108.15 86.7254 108.978 86.9497 109.798C87.174 110.617 87.6226 111.425 88.5267 112.11C90.5678 113.657 93.7783 114.068 97.0329 114.34C100.278 114.611 103.387 114.163 106.235 113.306C107.7 112.866 108.994 111.822 110.405 109.969C111.816 108.116 113.251 105.334 114.17 102.6C115.919 97.3996 115.818 93.7761 115.773 92.2834C115.736 91.0531 115.187 90.1463 114.374 89.5128C111.621 87.3674 105.502 89.2328 103.363 90.4998C102.454 91.0378 102.044 91.9517 101.862 92.6749C101.773 93.0283 102.039 93.3982 102.445 93.7625C104.736 95.8159 109.722 95.8507 113.855 95.2226C115.893 94.9129 117.352 92.8707 118.708 90.8832C120.188 88.7149 120.799 85.8069 121.343 82.6447C121.971 78.9932 121.259 76.4618 120.582 75.6475C120.232 75.2263 119.636 75.0126 119.044 74.9188C117.84 74.7278 116.37 75.6353 114.698 77.2599C112.596 79.3023 111.473 82.6937 110.523 86.1739C109.566 89.68 109.654 93.1181 110.104 96.2368C110.584 99.5595 113.265 102.365 116.743 104.583C118.577 105.752 121.028 106.172 123.665 106.585C126.302 106.998 129.174 107.178 131.819 107.181C136.801 107.186 140.906 106.101 144.296 104.385C147.863 102.581 150.248 99.2222 151.878 96.0125C153.35 93.1142 153.157 89.975 153.249 87.4423C153.327 85.2681 152.709 83.3544 151.896 81.7257C151.511 80.9555 150.903 80.456 150.178 80.1338C146.762 78.6178 141.942 80.6191 137.991 83.1532C136.185 84.3118 135.218 85.9673 134.448 87.1881C133.789 88.2344 133.853 89.4122 134.213 90.4522C134.603 91.5783 136.471 92.1339 138.776 92.5866C141.315 93.0855 144.171 92.3242 147.019 90.6996C150.163 88.9066 152.241 84.9966 154.231 80.7496C155.271 78.5314 155.863 75.9643 156.367 73.6382C157.312 69.2821 157.418 65.6867 157.328 63.018C157.287 61.7824 157.059 60.798 156.698 60.0204C156.336 59.2427 155.798 58.7044 154.982 58.3373C153.186 57.529 150.545 57.5162 147.696 57.4251C144.938 57.3369 142.295 58.0546 139.899 59.0035C135.528 60.734 133.945 63.4027 133.854 64.1708C133.753 65.0272 134.484 65.9395 135.522 66.7987C138.481 69.2465 143.089 68.7536 144.273 68.3485C146.059 67.7375 143.921 62.3423 141.523 57.0825C140.202 54.1847 137.942 51.9967 135.819 50.2321C133.719 48.4869 130.517 48.1821 127.352 48.0447C124.353 47.9146 121.452 49.2615 118.649 50.6617C113.393 53.2872 111.386 57.5896 110.518 60.2256C110.345 60.7479 110.56 61.2221 110.83 61.5878C112.107 63.3141 115.981 62.7719 118.935 61.8257C120.276 61.3963 120.799 59.6968 121.343 58.3863C121.884 57.0817 121.169 55.3492 120.266 53.5411C119.282 51.5685 117.368 50.0908 115.56 48.7789C113.87 47.5531 110.853 47.0945 107.279 47.002C104.478 46.9296 102.234 48.8047 100.02 51.1076C97.4354 53.7951 95.6164 57.7664 94.0326 62.239C93.1964 64.6003 92.8974 67.3398 92.6214 70.5209C92.3455 73.7021 92.2557 77.2911 92.5236 81.0691C92.7914 84.8471 93.4195 88.7053 94.4608 92.3079C95.5022 95.9105 96.9378 99.1406 98.5297 102.106C100.122 105.071 101.826 107.673 103.512 109.776C106.58 113.603 110.002 115.783 112.942 117.097C117.451 119.111 120.701 117.608 121.933 116.747C122.217 116.549 122.072 115.982 121.847 115.616C120.698 113.743 115.666 113.35 112.293 113.928C110.502 114.234 109.752 117.499 108.621 120.392C107.522 123.203 107.12 127.725 106.757 132.839C106.516 136.24 107.115 138.261 107.882 139.618C108.714 141.091 110.913 141.529 113.128 141.711C117.782 142.094 121.691 138.283 123.834 135.153C124.723 133.854 124.339 132.203 123.798 130.801C123.225 129.317 121.446 128.394 119.504 127.624C117.395 126.789 114.565 127.029 111.491 127.524C108.26 128.044 105.679 130.373 103.508 132.317C99.835 135.606 98.6942 139.702 98.9117 143.825C99.0412 146.279 101.576 148.318 104.153 150.173C106.67 151.984 109.82 152.766 113.12 152.995C116.524 153.23 119.791 151.238 122.685 149.025C125.605 146.792 127.05 143.449 128.181 140.511C130.244 135.154 129.416 132.293 128.783 131.162C128.481 130.62 127.972 130.3 127.382 130.115C126.121 129.72 125.065 130.02 124.568 130.29C124.312 130.429 124.16 130.74 124.067 131.013C123.891 131.535 124.154 132.192 124.696 132.915C126.261 135.008 131.914 135.634 137.01 135.057C139.525 134.771 141.276 131.665 143.175 128.954C145.194 126.072 146.265 122.246 147.17 117.506C148.35 111.328 147.633 106.558 146.866 104.568C146.135 102.669 143.834 101.838 141.485 101.249C138.84 100.586 135.952 101.286 133.374 102.324C130.914 103.316 129.059 105.269 127.521 106.987C126.296 108.355 126.06 109.804 126.149 110.934C126.256 112.301 128.135 113.249 130.661 114.064C134.479 115.295 137.923 114.796 139.597 114.255C142.922 113.18 143.367 107.477 143.462 103.389C143.502 101.649 142.649 100.209 141.836 99.0332C141.036 97.8764 139.481 97.4848 137.674 97.3937C135.51 97.2845 132.782 98.0231 129.753 99.1515C126.627 100.316 123.45 103.537 120.461 106.706C118.844 108.419 118.719 109.894 118.763 110.98C118.848 113.099 124.676 112.529 128.945 111.312C130.852 110.768 131.765 108.82 132.489 107.194C133.311 105.351 132.499 102.844 131.281 100.268C129.895 97.336 126.89 94.9589 123.817 92.5172C120.6 89.9602 116.563 88.6074 112.585 87.702C108.67 86.8109 104.779 87.2398 101.342 88.0065C98.1127 88.7271 95.7985 90.9484 93.9442 92.9822C92.1588 94.9403 91.3503 97.202 90.9425 99.0563C90.6007 100.61 91.1627 101.919 91.886 102.87C92.4876 103.66 93.4276 103.828 94.2419 103.783C94.6098 103.763 94.8768 103.649 95.1052 103.423C95.6122 102.922 95.7877 101.571 95.6993 99.4492C95.5819 96.6309 93.8925 93.5124 92.3563 90.3924C90.8866 87.4073 88.6395 84.9885 86.4249 82.9071C84.4041 81.0079 81.573 80.4478 78.816 80.2194C75.9511 79.9821 72.8751 81.9759 69.6653 84.234C66.2386 86.6447 63.8074 90.217 61.6363 93.3819C59.6607 96.2617 58.0949 100.718 56.7802 105.741C55.8908 109.14 57.1731 111.882 58.6631 114.144C60.0901 116.31 62.8775 116.876 65.3626 117.329C68.0856 117.825 69.9549 117.426 70.5436 116.749C70.8507 116.395 70.863 115.802 70.5952 115.121C69.9594 113.504 67.9755 111.814 65.7161 109.914C63.4316 107.994 60.5473 106.914 57.7441 106.145C55.1683 105.438 52.7494 105.639 50.6694 106.135C48.6765 106.611 47.0369 108.17 45.5442 109.887C44.0635 111.59 43.4968 114.326 43.1338 118.207C42.6221 123.68 43.6708 128.285 44.7095 130.907C45.7298 133.484 48.2822 135.539 50.997 136.9C52.1117 137.459 52.9941 137.005 53.769 136.507C57.2762 134.255 58.2634 129.136 58.224 125.411C58.2062 123.732 56.4608 122.684 55.1951 121.87C54.0043 121.104 52.6542 120.868 51.4334 120.822C50.8395 120.799 50.3023 121.044 49.8456 121.361C47.7295 122.829 47.665 127.461 48.4276 132.854C48.8548 135.875 51.7298 138.166 54.1701 140.382C55.3919 141.491 56.7898 142.328 59.0533 143.239C64.3397 145.367 69.1284 145.972 71.8867 145.792C74.4281 145.627 76.475 144.166 78.1485 142.63C81.2651 139.769 81.1951 136.015 80.8824 133.834C80.8101 133.33 80.2978 133.019 79.8437 132.834C78.9088 132.453 77.6686 132.739 76.4029 133.054C75.0501 133.391 74.0415 134.726 73.2272 136.218C72.4106 137.713 72.4047 139.707 72.8098 141.832C73.2231 144 75.3847 145.602 77.8249 146.914C80.3084 148.249 83.2669 148.598 86.2047 148.736C89.2449 148.878 92.1497 147.339 94.7721 145.353C99.7179 141.607 99.412 139.177 99.5045 138.904C99.6707 138.412 98.3299 140.074 97.8758 141.25C97.6755 141.769 97.9601 142.247 98.6358 142.568C100.36 143.386 104.192 143.343 111.229 143.03C115.766 142.828 122.213 141.73 126.977 140.73C131.74 139.729 134.612 138.652 136.539 137.649C138.467 136.646 139.364 135.749 139.647 135.062C139.93 134.375 139.571 133.927 139.072 133.516C136.922 131.747 134.318 131.561 132.776 131.696C132.294 131.738 132.491 132.1 132.808 132.373C134.555 133.881 138.636 134.188 143.307 133.785C145.925 133.56 147.983 131.121 149.747 127.917C153.806 120.54 152.073 117.431 151.487 115.983C150.247 112.92 144.03 113.437 139.128 113.705C137.088 113.816 135.762 114.701 134.992 115.244C134.648 115.486 134.492 115.786 134.669 116.014C135.172 116.665 138.271 116.607 142.299 116.428C145.032 116.306 146.806 114.802 148.433 112.727C150.721 109.81 150.893 106.196 150.758 103.846C150.622 101.465 148.821 98.6784 146.289 96.007C144.264 93.8694 140.849 93.7707 137.549 93.3628C134.183 92.9467 130.878 93.4036 127.715 93.9896C124.274 94.6269 122.346 95.8507 122.342 96.3469C122.331 97.6645 124.785 97.5745 125.825 97.5296C126.328 97.5079 126.776 97.395 127.276 96.9451C130.001 94.494 128.962 89.5264 128.241 85.2821C127.289 79.6769 125.34 75.6516 124.165 73.7973C123.05 72.0361 121.354 71.2931 119.324 71.0661C116.148 70.7108 111.764 72.3671 107.869 74.3139C104.902 75.7972 103.681 77.8077 101.643 79.7137C101.135 80.1892 100.423 80.2602 99.9653 80.1284C99.0711 79.871 98.8709 78.4576 98.735 77.0573C98.5736 75.395 99.0477 73.1175 99.9952 70.3605C100.492 68.9146 101.391 67.5138 103.961 64.576C106.53 61.6381 110.837 57.2416 114.088 54.214C119.208 49.4446 122.335 47.9102 123.873 47.6383C125.214 47.4012 126.506 47.815 128.041 48.8509C132.487 51.8516 132.763 55.148 133.128 58.2272C133.352 60.1125 131.871 63.2043 129.836 66.6899C128.437 69.0859 126.52 69.8385 124.984 70.1117C124.178 70.2551 123.268 69.8466 122.671 69.3491C121.525 68.3935 121.438 66.0483 121.482 63.695C121.513 61.9874 123.331 60.6049 126.082 58.8431C130.069 56.2899 134.204 55.4335 136.556 55.0257C138.524 54.6843 140.37 55.0664 141.819 55.5178C142.407 55.7007 142.551 56.1486 142.643 56.5578C143.184 58.9533 140.115 61.8584 138.933 62.4538C138.686 62.5786 138.391 62.5 138.207 62.3206C137.776 61.8985 137.842 60.5152 137.976 59.0211C138.031 58.4118 138.38 58.1552 138.698 58.0165C139.332 57.7404 140.283 58.0573 141.862 59.047C144.75 60.8583 146.627 63.9384 147.803 66.3786C149.019 68.9036 149.351 72.8973 149.397 77.1525C149.442 81.238 147.633 82.3457 147.045 82.7984C146.727 82.9819 146.368 83.0716 145.959 82.8935C145.55 82.7154 145.101 82.2668 144.639 81.8046"
    stroke="currentColor" stroke-width="2" stroke-linecap="round" />
</svg>
