<svg viewBox="0 0 200 200" fill="none" xmlns="http://www.w3.org/2000/svg">
  <path
    d="M100.131 66.0879C85.1309 26.5879 72.1308 44.0879 77.6307 71.5879C79.1308 79.0889 75.1307 78.4978 67.1307 73.0879C61.6308 69.3686 62.3174 77.3542 67.1307 80.0879C71.9441 82.8216 69.3026 85.5879 63.1307 85.5879C49.1307 85.5879 50.6307 94.5879 63.1307 96.5879C73.9832 98.3243 71.1308 105.767 61.6308 108.588C27.1184 118.836 43.1307 135.196 71.1308 130.088C84.4562 127.657 82.0439 131.676 79.1308 138.088C70.4986 157.088 94.6307 167.588 109.131 139.588C109.131 139.588 112.131 133.088 116.131 139.588C130.901 163.588 153.676 144.588 123.131 120.588C116.131 115.088 120.131 104.959 127.631 108.588C158.631 123.588 171.631 95.4017 138.131 89.0879C131.475 87.8334 129.33 86.1217 134.131 77.5879C148.131 51.0879 136.383 45.3609 116.131 68.0879C105.942 79.5183 103.928 76.0879 100.131 66.0879Z"
    fill="currentColor" stroke="currentColor" stroke-width="3" />
</svg>
