<svg viewBox="0 0 200 200" fill="none" xmlns="http://www.w3.org/2000/svg">
  <path
    d="M43 70.5628C43 37.5629 91 38.0629 91 70.5628C91 98.0629 52 98.0629 52 70.5628C52 50.8257 81 50.2387 81 70.5628C81 87.5629 61.5 86.0629 61.5 70.5628C61.5 62.5629 73 62.5629 73 70.5628"
    stroke="currentColor" stroke-width="3" />
  <path
    d="M132.937 113.063C165.937 113.063 165.437 65.0629 132.937 65.0629C105.437 65.0629 105.437 104.063 132.937 104.063C152.674 104.063 153.261 75.0629 132.937 75.0629C115.937 75.0629 117.437 94.5629 132.937 94.5629C140.937 94.5629 140.937 83.0629 132.937 83.0629"
    stroke="currentColor" stroke-width="3" />
  <path
    d="M86.0628 154.063C53.0629 154.063 53.5629 106.063 86.0628 106.063C113.563 106.063 113.563 145.063 86.0628 145.063C66.3257 145.063 65.7387 116.063 86.0628 116.063C103.063 116.063 101.563 135.563 86.0628 135.563C78.0629 135.563 78.0629 124.063 86.0628 124.063"
    stroke="currentColor" stroke-width="3" />
</svg>
