<svg viewBox="0 0 200 200" fill="none" xmlns="http://www.w3.org/2000/svg">
<path d="M57 53C56.1369 65.58 56.1926 72.633 57 85.2134C60.1979 83.642 63.5458 82.3108 67 81.2196M57 53C70.6387 60.4643 77.0525 65.807 86 77.6885C83.4816 77.856 80.977 78.1351 78.5 78.5257M57 53V46M57 53L53 46M57 53L53 50M67 81.2196C66.6945 76.8807 66.6249 74.4986 67 70.5C71.7909 72.9114 74.2899 74.7143 78.5 78.5257M67 81.2196C70.7276 80.0421 74.5792 79.1441 78.5 78.5257" stroke="currentColor" stroke-width="2"/>
<path d="M143 53.5C143.863 66.08 143.807 73.133 143 85.7134C139.802 84.142 136.454 82.8108 133 81.7196M143 53.5C129.361 60.9643 122.948 66.307 114 78.1885C116.518 78.356 119.023 78.6351 121.5 79.0257M143 53.5V46.5M143 53.5L147 46.5M143 53.5L147 50.5M133 81.7196C133.305 77.3807 133.375 74.9986 133 71C128.209 73.4114 125.71 75.2143 121.5 79.0257M133 81.7196C129.272 80.5421 125.421 79.6441 121.5 79.0257" stroke="currentColor" stroke-width="2"/>
</svg>
