<svg viewBox="0 0 170 170" fill="none" xmlns="http://www.w3.org/2000/svg">
<path d="M59.1975 11.6239C59.7732 11.6239 61.3424 11.4157 62.3233 11.2557C62.4635 11.2328 62.5599 11.4631 62.5355 11.6996C62.4761 12.2743 60.997 14.3918 59.0272 17.464C58.2337 18.7016 57.9421 19.3392 57.8593 19.6869C57.7765 20.0347 57.9327 20.0867 58.1432 20.0875C58.6167 20.0893 60.4955 19.4101 62.94 18.6208C63.7574 18.3568 63.7711 18.5601 63.4328 19.1089C62.4888 20.6405 61.5648 21.9241 61.6144 22.5021C61.6849 23.3215 64.5439 22.5092 67.1438 21.958C68.6678 21.6349 69.4976 21.35 69.9976 21.5574C70.268 21.6695 70.0291 22.3893 68.9346 24.6359C67.8401 26.8825 65.7583 30.7859 64.6338 32.9528C63.5093 35.1198 63.4052 35.432 63.4297 35.645C63.4541 35.8579 63.6103 35.962 63.8989 35.9375C65.8169 35.775 67.2392 34.5977 67.5018 34.597C67.62 34.5966 67.6603 34.8044 67.609 35.0149C67.4874 35.5147 66.9806 36.4304 66.5863 37.5856C66.4257 38.056 66.4522 38.3245 66.7905 38.4585C67.1288 38.5926 67.8054 38.5926 68.18 38.8008C68.841 39.1682 68.5041 41.3115 68.2675 43.9098C67.9967 46.8839 69.1775 49.0899 69.7894 50.4186C70.0899 51.0711 70.5496 51.6795 71.2064 52.5981C72.3761 54.234 73.0225 54.8842 73.442 56.1711C74.1785 58.5652 74.7037 59.7228 74.837 60.3544C74.863 60.5129 74.915 60.669 74.9686 60.8299" stroke="#13C667" stroke-width="3" stroke-linecap="round"/>
<path d="M77.8074 5C77.3359 5.05204 76.8627 5.20976 76.6001 5.3927C76.4617 5.48915 76.4416 5.73178 76.623 5.96914C77.0952 6.58711 79.8876 6.78687 83.929 6.73561C87.0545 6.69597 88.8945 5.94785 89.1366 5.71128C90.1191 4.75122 85.8065 5.83902 84.1285 6.38865C82.3578 6.96862 80.5516 8.51381 78.8964 9.90562C78.0356 10.6294 77.861 11.1492 77.8855 11.5158C78.0069 13.3375 82.1035 13.7214 85.156 14.2253C87.7104 14.647 88.9497 13.6757 89.3961 13.3611C89.5958 13.2202 89.6862 13.0464 89.4016 13.0701C88.4162 13.152 87.0146 13.9328 85.5463 14.8759C83.9764 15.8843 82.2344 17.8677 80.4743 19.8375C79.5454 20.8771 79.2284 21.5565 79.148 22.0817C78.8241 24.1961 84.3761 22.0865 84.8484 21.8507C85.0718 21.7392 85.2167 21.5629 85.193 21.4824C84.9633 20.7013 83.0182 22.4997 81.6761 24.1817C80.5665 25.5722 80.5421 27.4392 80.7235 29.0975C80.9041 30.7492 82.6902 31.5965 83.8225 31.9158C84.4045 32.08 84.9549 31.6548 85.3744 31.2621C85.606 31.0453 85.7939 30.7133 85.719 30.6305C85.4202 30.3003 83.8635 31.8535 81.9221 33.9243C80.0349 35.9372 79.4382 37.6952 79.2544 38.4033C79.0864 39.051 79.1212 39.6934 79.3041 40.2966C79.7057 41.6209 81.3244 42.2167 82.3511 42.5085C82.5816 42.574 82.7974 42.5353 82.7745 42.6915C82.5743 44.0587 81.3843 45.3142 81.3551 47.5482C81.3485 48.0585 82.7391 48.0552 83.9771 48.0552C84.2263 48.0552 83.7058 48.0552 83.3596 48.1593C81.7741 48.6361 81.3307 51.4145 81.1462 52.2314C80.9193 53.2358 80.8576 54.0956 80.7779 55.1223C80.7099 55.9986 80.5421 56.7262 80.4625 58.1432C80.3844 58.6187 80.3308 59.248 80.3568 60.0358C80.3828 60.3551 80.4349 60.5113 80.4885 60.6721" stroke="#13C667" stroke-width="3" stroke-linecap="round"/>
<path d="M99.7294 7.99652C100.879 7.99652 103.19 8.2047 105.136 8.86078C106.301 9.25335 106.983 9.88748 107.063 10.2542C107.111 10.4727 106.675 10.7249 104.849 11.8478C103.022 12.9707 99.6915 14.9484 98.0537 16.0193C96.4158 17.0902 96.572 17.1943 97.0688 17.2999C98.3853 17.5799 99.8287 17.6169 100.176 18.1113C100.488 18.5562 98.9093 19.5946 97.8005 20.8066C95.4693 23.3551 94.3151 25.0278 94.3143 25.2904C94.3123 25.9537 95.7834 25.3464 96.2045 25.2139C97.3703 24.8471 94.159 27.6553 93.9216 28.1276C93.7467 28.4757 96.0831 28.5526 98.8178 28.6031C99.6925 28.6192 99.4707 29.174 98.5828 30.2993C96.2092 33.3074 94.3167 35.4352 94.2875 35.9603C94.1685 38.1031 98.2027 36.0692 98.4661 36.2253C98.8712 36.4655 97.8416 37.7441 96.2211 39.915C95.1169 41.3942 93.2474 43.4911 92.2049 44.7464C91.1625 46.0018 90.9543 46.3141 90.9511 46.527C90.9455 46.9045 91.5788 46.9512 91.8682 47.1074C93.4619 47.9672 89.9024 51.2568 89.4284 52.0714C89.2706 52.3427 89.475 52.4175 89.6335 52.3923C89.792 52.3671 89.9481 52.263 89.9765 52.3915C90.4635 54.5967 86.3302 57.6125 85.6426 58.6456C85.4849 58.8301 85.2767 59.0383 85.1434 59.2236C85.0101 59.4089 84.9581 59.565 84.9045 59.7259" stroke="#13C667" stroke-width="3" stroke-linecap="round"/>
<path d="M118.339 15.409C118.027 15.409 116.565 15.461 114.333 15.618C113.399 15.6836 112.882 15.879 114.8 15.9594C116.718 16.0398 121.09 16.0398 123.55 15.9878C126.01 15.9358 126.427 15.8317 126.771 15.778C127.116 15.7244 127.376 15.7244 125.168 17.8843C122.96 20.0441 118.276 24.3639 115.759 26.7193C113.242 29.0747 113.034 29.3349 113.005 29.469C112.965 29.6494 113.865 29.4989 114.837 29.3152C115.236 29.2396 115.444 29.1835 113.287 32.6697C111.13 36.1559 106.602 43.182 104.114 47.1137C101.625 51.0455 101.313 51.67 101.23 52.0698C100.717 54.548 108.452 48.0584 107.963 48.366C104.868 50.313 102.675 52.2599 102.49 52.4696C102.257 52.7337 103.51 52.7866 104.297 52.7606C104.618 52.75 104.773 52.6825 103.24 54.0349C101.707 55.3873 98.4803 58.1456 96.7139 59.5927C94.7393 61.0917 94.3687 61.1453 93.898 61.2234C93.5833 61.3015 93.1149 61.4576 92.4746 61.9339" stroke="#13C667" stroke-width="3" stroke-linecap="round"/>
<path d="M48 36.8577C48.1041 36.3341 48.8359 35.391 50.3862 34.1545C51.3721 33.3682 52.6225 33.3881 53.3306 33.5442C54.1179 33.7178 54.4125 34.4905 54.5703 34.8311C54.9565 35.6655 53.9457 37.5296 51.0864 41.496C50.5087 42.2974 50.2647 42.4786 50.2356 42.5598C49.8677 43.584 54.8131 40.7027 56.3563 40.3274C56.5104 40.2899 56.671 40.3274 56.8295 40.4575C57.7033 41.1748 57.6204 42.7908 57.3854 44.5785C57.0925 46.8064 55.6238 48.0537 55.5701 48.2902C55.5103 48.5544 58.3853 47.4859 62.0379 46.1193C63.3457 45.63 63.5567 45.5855 63.7159 45.7668C64.147 46.2576 63.9825 47.2619 63.4084 49.0125C62.9829 50.3102 62.1057 52.3765 61.8069 53.501C61.508 54.6255 61.7682 54.7296 62.2666 54.7832C62.7649 54.8368 63.4936 54.8368 63.8689 54.9669C64.7164 55.2607 64.5565 56.4108 65.0573 57.4611C65.4914 58.3717 66.1337 58.8301 66.7393 59.8008C67.1948 60.5309 67.449 61.2998 67.7392 61.9315C67.9221 62.2461 68.2375 62.6152 68.605 63.0086C68.7643 63.194 68.8684 63.3501 68.9756 63.511" stroke="#13C667" stroke-width="3" stroke-linecap="round"/>
<path d="M27.1873 94.6584C39.6167 137.992 83.12 160 83.12 160C83.12 160 127.543 138.333 138.419 94.6584C149.295 50.9841 101.131 29.997 83.12 71.4436C58.2611 29.6577 14.7579 51.3247 27.1873 94.6584Z" fill="#FF8D28" stroke="#CB30E0" stroke-width="3"/>
<mask id="mask0_14_6" style="mask-type:luminance" maskUnits="userSpaceOnUse" x="82" y="57" width="40" height="55">
<ellipse cx="102" cy="84.5" rx="20" ry="27.5" fill="white"/>
</mask>
<g mask="url(#mask0_14_6)">
<path d="M102 57.5C107.323 57.5 112.186 60.4661 115.737 65.3486C119.288 70.2309 121.5 77.0003 121.5 84.5C121.5 91.9997 119.288 98.7691 115.737 103.651C112.186 108.534 107.323 111.5 102 111.5C96.6766 111.5 91.8137 108.534 88.2627 103.651C84.712 98.7691 82.5 91.9997 82.5 84.5C82.5 77.0003 84.712 70.2309 88.2627 65.3486C91.8137 60.4661 96.6766 57.5 102 57.5Z" fill="#D9D9D9" stroke="black"/>
<circle cx="104.5" cy="99.5" r="7.5" fill="black"/>
</g>
<circle cx="67" cy="92" r="19.5" fill="#D9D9D9" stroke="black"/>
<circle cx="62" cy="85" r="5" fill="black"/>
<path d="M84.72 128V132.372V142.102C84.72 146.051 88.9 150.035 93.08 150C97.26 149.965 101.44 145.91 101.44 142.102" stroke="#0088FF" stroke-width="3"/>
<path d="M84.72 128V132.372V142.102C84.72 146.051 80.54 150.035 76.36 150C72.18 149.965 68 145.91 68 142.102" stroke="#0088FF" stroke-width="3"/>
<path d="M84.8066 103.5C94.315 103.5 102.114 111.504 102.114 121.491C102.114 131.478 94.3149 139.481 84.8066 139.481C75.2986 139.481 67.5002 131.478 67.5 121.491C67.5 111.504 75.2985 103.5 84.8066 103.5Z" fill="#FCB3AD" stroke="#E67067" stroke-width="3"/>
<circle cx="76.2584" cy="121.833" r="3.41946" fill="#E67067"/>
<circle cx="94.0396" cy="121.833" r="3.41946" fill="#E67067"/>
</svg>
