<svg viewBox="0 0 200 200" fill="none" xmlns="http://www.w3.org/2000/svg">
<path d="M102.964 113C101.425 115.667 97.5755 115.667 96.0359 113L86.0766 95.75C84.537 93.0833 86.4615 89.75 89.5407 89.75H109.459C112.538 89.75 114.463 93.0833 112.923 95.75L102.964 113Z" fill="currentColor"/>
<path d="M114.5 94.9999C131.483 87.8584 141.008 86.9184 158 89.4999M111 101.5C130.922 95.6471 142.5 97.5 160 102.5M108 107C126.5 104 138.5 106.5 154.5 114" stroke="currentColor"/>
<path d="M84.5 94.8091C67.5166 87.6677 57.9916 86.7276 41 89.3091M88 101.309C68.078 95.4563 56.5 97.3092 39 102.309M91 106.809C72.5 103.809 60.5 106.309 44.5 113.809" stroke="currentColor"/>
</svg>
