<svg viewBox="0 0 200 200" fill="none" xmlns="http://www.w3.org/2000/svg">
  <path
    d="M99.8154 74.0002C102.233 73.9816 104.409 75.3798 106.285 77.6252C108.169 79.8799 109.914 83.1719 111.498 87.4142C114.67 95.9125 117.318 108.57 118.985 125.352L117.813 125.468L116.993 125.95L115.7 126.711C113.296 122.624 110.83 121.019 108.635 121C106.401 120.981 103.672 122.587 100.723 126.81L99.5996 126.025L99.2002 126.261C99.0127 125.942 98.8226 125.639 98.6328 125.35L98.2637 125.092C98.297 125.044 98.3299 124.997 98.3633 124.949C96.2206 121.853 93.9606 120.567 91.8848 120.55C89.5018 120.531 86.6492 122.169 83.7227 126.36L82.4932 125.5L81 125.361C82.5563 108.688 85.1198 96.0578 88.2354 87.5461C89.7907 83.2971 91.5139 79.9897 93.3809 77.7131C95.239 75.4473 97.4008 74.0188 99.8154 74.0002ZM99.8389 77.0002C98.6816 77.0091 97.2782 77.6924 95.7012 79.6154C94.1331 81.5276 92.55 84.4868 91.0527 88.5773C88.3565 95.9433 86.0331 106.704 84.4697 120.883C86.7968 118.717 89.3071 117.529 91.9092 117.55C95.0915 117.576 97.9329 119.401 100.296 122.508C102.888 119.616 105.704 117.976 108.659 118C111.215 118.022 113.523 119.281 115.553 121.454C113.893 106.896 111.47 95.9178 108.688 88.4631C107.163 84.3793 105.562 81.4375 103.983 79.548C102.397 77.6494 100.993 76.9914 99.8389 77.0002Z"
    fill="currentColor" />
</svg>
