<svg viewBox="0 0 200 200" fill="none" xmlns="http://www.w3.org/2000/svg">
  <path
    d="M89 100C86.418 94.3719 83.0496 89.5795 79.124 86.0753C76.3386 83.5887 73.2725 81.7151 70.0078 80.5538M40 89.4624C44.3091 85.3604 48.6558 82.5728 52.9147 80.947M70.0078 80.5538C70.4419 73.4421 70.0078 69.5161 64.6899 65M70.0078 80.5538C64.716 78.6716 58.9022 78.6613 52.9147 80.947M52.9147 80.947C52.3645 74.5476 51.0669 71.451 45.3178 67.6344"
    stroke="currentColor" stroke-width="3" />
  <path
    d="M112 100C114.582 94.3719 117.95 89.5795 121.876 86.0753C124.661 83.5887 127.727 81.7151 130.992 80.5538M161 89.4624C156.691 85.3604 152.344 82.5728 148.085 80.947M130.992 80.5538C130.558 73.4421 130.992 69.5161 136.31 65M130.992 80.5538C136.284 78.6716 142.098 78.6613 148.085 80.947M148.085 80.947C148.635 74.5476 149.933 71.451 155.682 67.6344"
    stroke="currentColor" stroke-width="3" />
</svg>
