<svg viewBox="0 0 200 200" fill="none" xmlns="http://www.w3.org/2000/svg">
<mask id="mask0_3_45" style="mask-type:luminance" maskUnits="userSpaceOnUse" x="60" y="45" width="40" height="55">
<ellipse cx="80" cy="72.5" rx="20" ry="27.5" fill="white"/>
</mask>
<g mask="url(#mask0_3_45)">
<path d="M80 45.5C85.3234 45.5 90.1863 48.4661 93.7373 53.3486C97.288 58.2309 99.5 65.0003 99.5 72.5C99.5 79.9997 97.288 86.7691 93.7373 91.6514C90.1863 96.5339 85.3234 99.5 80 99.5C74.6766 99.5 69.8137 96.5339 66.2627 91.6514C62.712 86.7691 60.5 79.9997 60.5 72.5C60.5 65.0003 62.712 58.2309 66.2627 53.3486C69.8137 48.4661 74.6766 45.5 80 45.5Z" fill="white" stroke="currentColor"/>
<ellipse cx="93.6" cy="78" rx="6.4" ry="8.8" fill="currentColor"/>
</g>
<mask id="mask1_3_45" style="mask-type:luminance" maskUnits="userSpaceOnUse" x="100" y="45" width="40" height="55">
<ellipse cx="20" cy="27.5" rx="20" ry="27.5" transform="matrix(-1 0 0 1 140 45)" fill="white"/>
</mask>
<g mask="url(#mask1_3_45)">
<path d="M120 45.5C114.677 45.5 109.814 48.4661 106.263 53.3486C102.712 58.2309 100.5 65.0003 100.5 72.5C100.5 79.9997 102.712 86.7691 106.263 91.6514C109.814 96.5339 114.677 99.5 120 99.5C125.323 99.5 130.186 96.5339 133.737 91.6514C137.288 86.7691 139.5 79.9997 139.5 72.5C139.5 65.0003 137.288 58.2309 133.737 53.3486C130.186 48.4661 125.323 45.5 120 45.5Z" fill="white" stroke="currentColor"/>
<ellipse cx="6.4" cy="8.8" rx="6.4" ry="8.8" transform="matrix(-1 0 0 1 112.8 69.2)" fill="currentColor"/>
</g>
</svg>
