<svg viewBox="0 0 200 200" fill="none" xmlns="http://www.w3.org/2000/svg">
  <path
    d="M43 99C46.1766 95.2697 47.3835 93.2809 48 90M43 99C37.8406 102.497 35.2989 102.733 31 102M43 99C52.8431 110.886 67.7909 118.357 84 121.413M158.5 99C155.233 96.287 153.781 94.1961 151.5 90M158.5 99C162.497 101.361 164.873 102.141 169.5 102M158.5 99C147.633 112.637 129.865 120.463 111 122.477M84 121.413C80.3433 137.344 76.5 145 75.5 164.5C74.0897 192 119.493 191.5 119 164.5C118.708 148.5 115.737 139.341 111 122.477M84 121.413C88.4319 122.249 92.9581 122.754 97.5 122.93M111 122.477C106.536 122.953 102.01 123.104 97.5 122.93M97.5 122.93C95.9146 139.753 95.3873 149.183 96.5 166"
    stroke="currentColor" stroke-width="3" />
</svg>
