<svg viewBox="0 0 200 200" fill="none" xmlns="http://www.w3.org/2000/svg">
  <path
    d="M61.5 117H40C44.68 133.581 54.0089 145.62 65.5 153.204M61.5 117C59.7565 131.19 61.5156 139.103 65.5 153.204M61.5 117H82.5M65.5 153.204C71.8175 157.373 78.7886 160.196 86 161.686M82.5 117C81.5936 134.511 82.2014 144.299 86 161.686M82.5 117H108M86 161.686C92.4068 163.01 99.0034 163.283 105.5 162.514M108 117C109.172 134.801 108.405 144.764 105.5 162.514M108 117H132.75M105.5 162.514C112.943 161.633 120.255 159.384 127 155.784M132.75 117H157.5C152.158 135.469 140.758 148.439 127 155.784M132.75 117C133.46 132.046 131.54 140.56 127 155.784"
    stroke="currentColor" stroke-width="3" />
</svg>
